<svg xmlns="http://www.w3.org/2000/svg" width="980" height="430" viewBox="0 0 980 430">
<defs>
  <marker id="arrow" markerWidth="10" markerHeight="10" refX="9" refY="3" orient="auto" markerUnits="strokeWidth">
    <path d="M0,0 L0,6 L9,3 z" fill="#1f2933" />
  </marker>
</defs>
<rect x="0" y="0" width="980" height="430" fill="white" />
<text x="45" y="45.0" font-family="Arial, sans-serif" font-size="17" fill="#1f2933" text-anchor="start" dominant-baseline="middle">Attention memory changes shape between full prefill and one-token cached decode.</text>
<rect x="100" y="120" width="38" height="38" fill="#f1f3f5" stroke="#70757a" stroke-width="1" />
<rect x="138" y="120" width="38" height="38" fill="#f1f3f5" stroke="#70757a" stroke-width="1" />
<rect x="176" y="120" width="38" height="38" fill="#f1f3f5" stroke="#70757a" stroke-width="1" />
<rect x="214" y="120" width="38" height="38" fill="#f1f3f5" stroke="#70757a" stroke-width="1" />
<rect x="252" y="120" width="38" height="38" fill="#f1f3f5" stroke="#70757a" stroke-width="1" />
<rect x="100" y="158" width="38" height="38" fill="#f1f3f5" stroke="#70757a" stroke-width="1" />
<rect x="138" y="158" width="38" height="38" fill="#f1f3f5" stroke="#70757a" stroke-width="1" />
<rect x="176" y="158" width="38" height="38" fill="#f1f3f5" stroke="#70757a" stroke-width="1" />
<rect x="214" y="158" width="38" height="38" fill="#f1f3f5" stroke="#70757a" stroke-width="1" />
<rect x="252" y="158" width="38" height="38" fill="#f1f3f5" stroke="#70757a" stroke-width="1" />
<rect x="100" y="196" width="38" height="38" fill="#f1f3f5" stroke="#70757a" stroke-width="1" />
<rect x="138" y="196" width="38" height="38" fill="#f1f3f5" stroke="#70757a" stroke-width="1" />
<rect x="176" y="196" width="38" height="38" fill="#f1f3f5" stroke="#70757a" stroke-width="1" />
<rect x="214" y="196" width="38" height="38" fill="#f1f3f5" stroke="#70757a" stroke-width="1" />
<rect x="252" y="196" width="38" height="38" fill="#f1f3f5" stroke="#70757a" stroke-width="1" />
<rect x="100" y="234" width="38" height="38" fill="#f1f3f5" stroke="#70757a" stroke-width="1" />
<rect x="138" y="234" width="38" height="38" fill="#f1f3f5" stroke="#70757a" stroke-width="1" />
<rect x="176" y="234" width="38" height="38" fill="#f1f3f5" stroke="#70757a" stroke-width="1" />
<rect x="214" y="234" width="38" height="38" fill="#f1f3f5" stroke="#70757a" stroke-width="1" />
<rect x="252" y="234" width="38" height="38" fill="#f1f3f5" stroke="#70757a" stroke-width="1" />
<rect x="100" y="272" width="38" height="38" fill="#f1f3f5" stroke="#70757a" stroke-width="1" />
<rect x="138" y="272" width="38" height="38" fill="#f1f3f5" stroke="#70757a" stroke-width="1" />
<rect x="176" y="272" width="38" height="38" fill="#f1f3f5" stroke="#70757a" stroke-width="1" />
<rect x="214" y="272" width="38" height="38" fill="#f1f3f5" stroke="#70757a" stroke-width="1" />
<rect x="252" y="272" width="38" height="38" fill="#f1f3f5" stroke="#70757a" stroke-width="1" />
<text x="195.0" y="334.0" font-family="Arial, sans-serif" font-size="14" fill="#1f2933" text-anchor="middle" dominant-baseline="middle">prefill scores: (T,T)</text>
<text x="120" y="330.0" font-family="Arial, sans-serif" font-size="18" fill="#1f2933" text-anchor="start" dominant-baseline="middle">B * H * T * T</text>
<rect x="440" y="150" width="110" height="70" fill="#f1f3f5" stroke="#70757a" stroke-width="2" rx="4" />
<text x="495.0" y="185.0" font-family="Arial, sans-serif" font-size="24" fill="#1f2933" text-anchor="middle" dominant-baseline="middle">vs</text>
<rect x="650" y="160" width="38" height="38" fill="#dff3df" stroke="#70757a" stroke-width="1" />
<rect x="688" y="160" width="38" height="38" fill="#dff3df" stroke="#70757a" stroke-width="1" />
<rect x="726" y="160" width="38" height="38" fill="#dff3df" stroke="#70757a" stroke-width="1" />
<rect x="764" y="160" width="38" height="38" fill="#dff3df" stroke="#70757a" stroke-width="1" />
<rect x="802" y="160" width="38" height="38" fill="#dff3df" stroke="#70757a" stroke-width="1" />
<rect x="840" y="160" width="38" height="38" fill="#dff3df" stroke="#70757a" stroke-width="1" />
<rect x="878" y="160" width="38" height="38" fill="#dff3df" stroke="#70757a" stroke-width="1" />
<text x="783.0" y="222.0" font-family="Arial, sans-serif" font-size="14" fill="#1f2933" text-anchor="middle" dominant-baseline="middle">decode scores: (1,T_cache)</text>
<text x="670" y="330.0" font-family="Arial, sans-serif" font-size="18" fill="#1f2933" text-anchor="start" dominant-baseline="middle">B * H * 1 * T_cache</text>
<text x="70" y="385.0" font-family="Arial, sans-serif" font-size="16" fill="#1f2933" text-anchor="start" dominant-baseline="middle">KV cache removes repeated K/V computation; the newest query still reads the cached sequence.</text>
</svg>
