<svg xmlns="http://www.w3.org/2000/svg" width="1060" height="430" viewBox="0 0 1060 430">
<defs>
  <marker id="arrow" markerWidth="10" markerHeight="10" refX="9" refY="3" orient="auto" markerUnits="strokeWidth">
    <path d="M0,0 L0,6 L9,3 z" fill="#1f2933" />
  </marker>
</defs>
<rect x="0" y="0" width="1060" height="430" fill="white" />
<text x="40" y="45.0" font-family="Arial, sans-serif" font-size="17" fill="#1f2933" text-anchor="start" dominant-baseline="middle">Attention is a soft lookup table: queries score keys, softmax creates weights, weights mix values.</text>
<rect x="55" y="110" width="80" height="55" fill="#d7e8ff" stroke="#2f65b0" stroke-width="2" rx="4" />
<text x="95.0" y="137.5" font-family="Arial, sans-serif" font-size="15" fill="#1f2933" text-anchor="middle" dominant-baseline="middle">Q</text>
<rect x="55" y="200" width="80" height="55" fill="#d7e8ff" stroke="#2f65b0" stroke-width="2" rx="4" />
<text x="95.0" y="227.5" font-family="Arial, sans-serif" font-size="15" fill="#1f2933" text-anchor="middle" dominant-baseline="middle">K</text>
<rect x="55" y="290" width="80" height="55" fill="#d7e8ff" stroke="#2f65b0" stroke-width="2" rx="4" />
<text x="95.0" y="317.5" font-family="Arial, sans-serif" font-size="15" fill="#1f2933" text-anchor="middle" dominant-baseline="middle">V</text>
<rect x="205" y="155" width="150" height="70" fill="#ffe6c9" stroke="#bf6b21" stroke-width="2" rx="4" />
<text x="280.0" y="185.45" font-family="Arial, sans-serif" font-size="13" fill="#1f2933" text-anchor="middle" dominant-baseline="middle">scores</text>
<text x="280.0" y="200.39999999999998" font-family="Arial, sans-serif" font-size="13" fill="#1f2933" text-anchor="middle" dominant-baseline="middle">QK^T / sqrt(d)</text>
<rect x="410" y="155" width="120" height="70" fill="#ffd7d7" stroke="#b83a3a" stroke-width="2" rx="4" />
<text x="470.0" y="185.45" font-family="Arial, sans-serif" font-size="13" fill="#1f2933" text-anchor="middle" dominant-baseline="middle">causal</text>
<text x="470.0" y="200.39999999999998" font-family="Arial, sans-serif" font-size="13" fill="#1f2933" text-anchor="middle" dominant-baseline="middle">mask</text>
<rect x="585" y="155" width="140" height="70" fill="#dff3df" stroke="#438a43" stroke-width="2" rx="4" />
<text x="655.0" y="185.45" font-family="Arial, sans-serif" font-size="13" fill="#1f2933" text-anchor="middle" dominant-baseline="middle">row</text>
<text x="655.0" y="200.39999999999998" font-family="Arial, sans-serif" font-size="13" fill="#1f2933" text-anchor="middle" dominant-baseline="middle">softmax</text>
<rect x="780" y="155" width="90" height="70" fill="#dff3df" stroke="#438a43" stroke-width="2" rx="4" />
<text x="825.0" y="190.0" font-family="Arial, sans-serif" font-size="15" fill="#1f2933" text-anchor="middle" dominant-baseline="middle">A</text>
<rect x="920" y="245" width="105" height="70" fill="#eadfff" stroke="#7453b6" stroke-width="2" rx="4" />
<text x="972.5" y="280.0" font-family="Arial, sans-serif" font-size="15" fill="#1f2933" text-anchor="middle" dominant-baseline="middle">Y = A V</text>
<line x1="135" y1="138" x2="205" y2="175" stroke="#1f2933" stroke-width="2" marker-end="url(#arrow)" />
<line x1="135" y1="228" x2="205" y2="205" stroke="#1f2933" stroke-width="2" marker-end="url(#arrow)" />
<line x1="355" y1="190" x2="410" y2="190" stroke="#1f2933" stroke-width="2" marker-end="url(#arrow)" />
<line x1="530" y1="190" x2="585" y2="190" stroke="#1f2933" stroke-width="2" marker-end="url(#arrow)" />
<line x1="725" y1="190" x2="780" y2="190" stroke="#1f2933" stroke-width="2" marker-end="url(#arrow)" />
<line x1="870" y1="190" x2="920" y2="270" stroke="#1f2933" stroke-width="2" marker-end="url(#arrow)" />
<path d="M 135 318 C 350 365, 700 370, 920 292" fill="none" stroke="#1f2933" stroke-width="2" marker-end="url(#arrow)" />
<text x="360" y="385.0" font-family="Arial, sans-serif" font-size="16" fill="#1f2933" text-anchor="start" dominant-baseline="middle">Mask before softmax so future tokens receive probability zero.</text>
</svg>
