<svg xmlns="http://www.w3.org/2000/svg" width="900" height="360" viewBox="0 0 900 360">
<defs>
  <marker id="arrow" markerWidth="10" markerHeight="10" refX="9" refY="3" orient="auto" markerUnits="strokeWidth">
    <path d="M0,0 L0,6 L9,3 z" fill="#1f2933" />
  </marker>
</defs>
<rect x="0" y="0" width="900" height="360" fill="white" />
<rect x="90" y="90" width="105" height="48" fill="#d7e8ff" stroke="#2f65b0" stroke-width="2" rx="4" />
<text x="142.5" y="114.0" font-family="Arial, sans-serif" font-size="14" fill="#1f2933" text-anchor="middle" dominant-baseline="middle">Once</text>
<rect x="90" y="210" width="105" height="48" fill="#dff3df" stroke="#438a43" stroke-width="2" rx="4" />
<text x="142.5" y="234.0" font-family="Arial, sans-serif" font-size="14" fill="#1f2933" text-anchor="middle" dominant-baseline="middle">upon</text>
<line x1="142" y1="145" x2="142" y2="202" stroke="#1f2933" stroke-width="2" marker-end="url(#arrow)" />
<rect x="235" y="90" width="105" height="48" fill="#d7e8ff" stroke="#2f65b0" stroke-width="2" rx="4" />
<text x="287.5" y="114.0" font-family="Arial, sans-serif" font-size="14" fill="#1f2933" text-anchor="middle" dominant-baseline="middle">upon</text>
<rect x="235" y="210" width="105" height="48" fill="#dff3df" stroke="#438a43" stroke-width="2" rx="4" />
<text x="287.5" y="234.0" font-family="Arial, sans-serif" font-size="14" fill="#1f2933" text-anchor="middle" dominant-baseline="middle">a</text>
<line x1="287" y1="145" x2="287" y2="202" stroke="#1f2933" stroke-width="2" marker-end="url(#arrow)" />
<rect x="380" y="90" width="105" height="48" fill="#d7e8ff" stroke="#2f65b0" stroke-width="2" rx="4" />
<text x="432.5" y="114.0" font-family="Arial, sans-serif" font-size="14" fill="#1f2933" text-anchor="middle" dominant-baseline="middle">a</text>
<rect x="380" y="210" width="105" height="48" fill="#dff3df" stroke="#438a43" stroke-width="2" rx="4" />
<text x="432.5" y="234.0" font-family="Arial, sans-serif" font-size="14" fill="#1f2933" text-anchor="middle" dominant-baseline="middle">time</text>
<line x1="432" y1="145" x2="432" y2="202" stroke="#1f2933" stroke-width="2" marker-end="url(#arrow)" />
<rect x="525" y="90" width="105" height="48" fill="#d7e8ff" stroke="#2f65b0" stroke-width="2" rx="4" />
<text x="577.5" y="114.0" font-family="Arial, sans-serif" font-size="14" fill="#1f2933" text-anchor="middle" dominant-baseline="middle">time</text>
<rect x="525" y="210" width="105" height="48" fill="#dff3df" stroke="#438a43" stroke-width="2" rx="4" />
<text x="577.5" y="234.0" font-family="Arial, sans-serif" font-size="14" fill="#1f2933" text-anchor="middle" dominant-baseline="middle">.</text>
<line x1="577" y1="145" x2="577" y2="202" stroke="#1f2933" stroke-width="2" marker-end="url(#arrow)" />
<text x="80" y="45.0" font-family="Arial, sans-serif" font-size="17" fill="#1f2933" text-anchor="start" dominant-baseline="middle">input x: tokens[t : t + N]</text>
<text x="80" y="300.0" font-family="Arial, sans-serif" font-size="17" fill="#1f2933" text-anchor="start" dominant-baseline="middle">target y: tokens[t + 1 : t + N + 1]</text>
<text x="80" y="335.0" font-family="Arial, sans-serif" font-size="15" fill="#1f2933" text-anchor="start" dominant-baseline="middle">Each position predicts the next token, so targets are shifted one step to the right.</text>
</svg>
