<svg xmlns="http://www.w3.org/2000/svg" width="1040" height="430" viewBox="0 0 1040 430">
<defs>
  <marker id="arrow" markerWidth="10" markerHeight="10" refX="9" refY="3" orient="auto" markerUnits="strokeWidth">
    <path d="M0,0 L0,6 L9,3 z" fill="#1f2933" />
  </marker>
</defs>
<rect x="0" y="0" width="1040" height="430" fill="white" />
<text x="45" y="45.0" font-family="Arial, sans-serif" font-size="17" fill="#1f2933" text-anchor="start" dominant-baseline="middle">Autoregressive generation loops because each sampled token becomes part of the next input.</text>
<rect x="60" y="160" width="120" height="62" fill="#d7e8ff" stroke="#2f65b0" stroke-width="2" rx="4" />
<text x="120.0" y="191.0" font-family="Arial, sans-serif" font-size="13" fill="#1f2933" text-anchor="middle" dominant-baseline="middle">current ids</text>
<line x1="180" y1="191.0" x2="212" y2="191.0" stroke="#1f2933" stroke-width="2" marker-end="url(#arrow)" />
<rect x="212" y="160" width="120" height="62" fill="#f1f3f5" stroke="#70757a" stroke-width="2" rx="4" />
<text x="272.0" y="186.45" font-family="Arial, sans-serif" font-size="13" fill="#1f2933" text-anchor="middle" dominant-baseline="middle">crop</text>
<text x="272.0" y="201.39999999999998" font-family="Arial, sans-serif" font-size="13" fill="#1f2933" text-anchor="middle" dominant-baseline="middle">context</text>
<line x1="332" y1="191.0" x2="364" y2="191.0" stroke="#1f2933" stroke-width="2" marker-end="url(#arrow)" />
<rect x="364" y="160" width="120" height="62" fill="#eadfff" stroke="#7453b6" stroke-width="2" rx="4" />
<text x="424.0" y="186.45" font-family="Arial, sans-serif" font-size="13" fill="#1f2933" text-anchor="middle" dominant-baseline="middle">model</text>
<text x="424.0" y="201.39999999999998" font-family="Arial, sans-serif" font-size="13" fill="#1f2933" text-anchor="middle" dominant-baseline="middle">forward</text>
<line x1="484" y1="191.0" x2="516" y2="191.0" stroke="#1f2933" stroke-width="2" marker-end="url(#arrow)" />
<rect x="516" y="160" width="120" height="62" fill="#dff3df" stroke="#438a43" stroke-width="2" rx="4" />
<text x="576.0" y="191.0" font-family="Arial, sans-serif" font-size="13" fill="#1f2933" text-anchor="middle" dominant-baseline="middle">last logits</text>
<line x1="636" y1="191.0" x2="668" y2="191.0" stroke="#1f2933" stroke-width="2" marker-end="url(#arrow)" />
<rect x="668" y="160" width="120" height="62" fill="#ffd7d7" stroke="#b83a3a" stroke-width="2" rx="4" />
<text x="728.0" y="186.45" font-family="Arial, sans-serif" font-size="13" fill="#1f2933" text-anchor="middle" dominant-baseline="middle">filter</text>
<text x="728.0" y="201.39999999999998" font-family="Arial, sans-serif" font-size="13" fill="#1f2933" text-anchor="middle" dominant-baseline="middle">sample</text>
<line x1="788" y1="191.0" x2="820" y2="191.0" stroke="#1f2933" stroke-width="2" marker-end="url(#arrow)" />
<rect x="820" y="160" width="120" height="62" fill="#ffe6c9" stroke="#bf6b21" stroke-width="2" rx="4" />
<text x="880.0" y="186.45" font-family="Arial, sans-serif" font-size="13" fill="#1f2933" text-anchor="middle" dominant-baseline="middle">append</text>
<text x="880.0" y="201.39999999999998" font-family="Arial, sans-serif" font-size="13" fill="#1f2933" text-anchor="middle" dominant-baseline="middle">token</text>
<path d="M 880.0 222 C 820 330, 160 330, 120.0 222" fill="none" stroke="#1f2933" stroke-width="2" marker-end="url(#arrow)" />
<text x="90" y="365.0" font-family="Arial, sans-serif" font-size="16" fill="#1f2933" text-anchor="start" dominant-baseline="middle">The model outputs logits for all visible positions, but generation consumes only the final row.</text>
</svg>
