<svg xmlns="http://www.w3.org/2000/svg" width="840" height="390" viewBox="0 0 840 390">
<defs>
  <marker id="arrow" markerWidth="10" markerHeight="10" refX="9" refY="3" orient="auto" markerUnits="strokeWidth">
    <path d="M0,0 L0,6 L9,3 z" fill="#1f2933" />
  </marker>
</defs>
<rect x="0" y="0" width="840" height="390" fill="white" />
<rect x="70" y="90" width="32" height="32" fill="#f1f3f5" stroke="#70757a" stroke-width="1" />
<rect x="102" y="90" width="32" height="32" fill="#f1f3f5" stroke="#70757a" stroke-width="1" />
<rect x="134" y="90" width="32" height="32" fill="#f1f3f5" stroke="#70757a" stroke-width="1" />
<rect x="166" y="90" width="32" height="32" fill="#f1f3f5" stroke="#70757a" stroke-width="1" />
<rect x="70" y="122" width="32" height="32" fill="#ffe6c9" stroke="#70757a" stroke-width="1" />
<rect x="102" y="122" width="32" height="32" fill="#ffe6c9" stroke="#70757a" stroke-width="1" />
<rect x="134" y="122" width="32" height="32" fill="#ffe6c9" stroke="#70757a" stroke-width="1" />
<rect x="166" y="122" width="32" height="32" fill="#ffe6c9" stroke="#70757a" stroke-width="1" />
<rect x="70" y="154" width="32" height="32" fill="#f1f3f5" stroke="#70757a" stroke-width="1" />
<rect x="102" y="154" width="32" height="32" fill="#f1f3f5" stroke="#70757a" stroke-width="1" />
<rect x="134" y="154" width="32" height="32" fill="#f1f3f5" stroke="#70757a" stroke-width="1" />
<rect x="166" y="154" width="32" height="32" fill="#f1f3f5" stroke="#70757a" stroke-width="1" />
<text x="134.0" y="210.0" font-family="Arial, sans-serif" font-size="14" fill="#1f2933" text-anchor="middle" dominant-baseline="middle">X: (B*N, D_in)</text>
<text x="260" y="145.0" font-family="Arial, sans-serif" font-size="32" fill="#1f2933" text-anchor="middle" dominant-baseline="middle">@</text>
<rect x="310" y="72" width="32" height="32" fill="#f1f3f5" stroke="#70757a" stroke-width="1" />
<rect x="342" y="72" width="32" height="32" fill="#d7e8ff" stroke="#70757a" stroke-width="1" />
<rect x="310" y="104" width="32" height="32" fill="#f1f3f5" stroke="#70757a" stroke-width="1" />
<rect x="342" y="104" width="32" height="32" fill="#d7e8ff" stroke="#70757a" stroke-width="1" />
<rect x="310" y="136" width="32" height="32" fill="#f1f3f5" stroke="#70757a" stroke-width="1" />
<rect x="342" y="136" width="32" height="32" fill="#d7e8ff" stroke="#70757a" stroke-width="1" />
<rect x="310" y="168" width="32" height="32" fill="#f1f3f5" stroke="#70757a" stroke-width="1" />
<rect x="342" y="168" width="32" height="32" fill="#d7e8ff" stroke="#70757a" stroke-width="1" />
<text x="342.0" y="224.0" font-family="Arial, sans-serif" font-size="14" fill="#1f2933" text-anchor="middle" dominant-baseline="middle">W: (D_in, D_out)</text>
<text x="445" y="145.0" font-family="Arial, sans-serif" font-size="32" fill="#1f2933" text-anchor="middle" dominant-baseline="middle">=</text>
<rect x="500" y="90" width="32" height="32" fill="#f1f3f5" stroke="#70757a" stroke-width="1" />
<rect x="532" y="90" width="32" height="32" fill="#f1f3f5" stroke="#70757a" stroke-width="1" />
<rect x="500" y="122" width="32" height="32" fill="#f1f3f5" stroke="#70757a" stroke-width="1" />
<rect x="532" y="122" width="32" height="32" fill="#dff3df" stroke="#70757a" stroke-width="1" />
<rect x="500" y="154" width="32" height="32" fill="#f1f3f5" stroke="#70757a" stroke-width="1" />
<rect x="532" y="154" width="32" height="32" fill="#f1f3f5" stroke="#70757a" stroke-width="1" />
<text x="532.0" y="210.0" font-family="Arial, sans-serif" font-size="14" fill="#1f2933" text-anchor="middle" dominant-baseline="middle">Y: (B*N, D_out)</text>
<path d="M 130 70 C 210 25, 470 25, 548 118" fill="none" stroke="#bf6b21" stroke-width="2" marker-end="url(#arrow)" />
<path d="M 360 55 C 430 10, 565 35, 580 118" fill="none" stroke="#2f65b0" stroke-width="2" marker-end="url(#arrow)" />
<text x="70" y="330.0" font-family="Arial, sans-serif" font-size="17" fill="#1f2933" text-anchor="start" dominant-baseline="middle">Highlighted output cell = dot(row of X, column of W)</text>
</svg>
