<svg xmlns="http://www.w3.org/2000/svg" width="980" height="420" viewBox="0 0 980 420">
<defs>
  <marker id="arrow" markerWidth="10" markerHeight="10" refX="9" refY="3" orient="auto" markerUnits="strokeWidth">
    <path d="M0,0 L0,6 L9,3 z" fill="#1f2933" />
  </marker>
</defs>
<rect x="0" y="0" width="980" height="420" fill="white" />
<text x="45" y="45.0" font-family="Arial, sans-serif" font-size="17" fill="#1f2933" text-anchor="start" dominant-baseline="middle">Multi-head attention runs several smaller attentions in parallel, then recombines them.</text>
<rect x="55" y="175" width="110" height="70" fill="#d7e8ff" stroke="#2f65b0" stroke-width="2" rx="4" />
<text x="110.0" y="205.45" font-family="Arial, sans-serif" font-size="13" fill="#1f2933" text-anchor="middle" dominant-baseline="middle">X</text>
<text x="110.0" y="220.39999999999998" font-family="Arial, sans-serif" font-size="13" fill="#1f2933" text-anchor="middle" dominant-baseline="middle">(B,N,D)</text>
<rect x="250" y="90" width="110" height="50" fill="#dff3df" stroke="#438a43" stroke-width="2" rx="4" />
<text x="305.0" y="115.0" font-family="Arial, sans-serif" font-size="13" fill="#1f2933" text-anchor="middle" dominant-baseline="middle">head 1</text>
<rect x="435" y="90" width="125" height="50" fill="#ffe6c9" stroke="#bf6b21" stroke-width="2" rx="4" />
<text x="497.5" y="115.0" font-family="Arial, sans-serif" font-size="13" fill="#1f2933" text-anchor="middle" dominant-baseline="middle">attention</text>
<line x1="165" y1="210" x2="250" y2="115" stroke="#1f2933" stroke-width="2" marker-end="url(#arrow)" />
<line x1="360" y1="115" x2="435" y2="115" stroke="#1f2933" stroke-width="2" marker-end="url(#arrow)" />
<line x1="560" y1="115" x2="675" y2="210" stroke="#1f2933" stroke-width="2" marker-end="url(#arrow)" />
<rect x="250" y="175" width="110" height="50" fill="#dff3df" stroke="#438a43" stroke-width="2" rx="4" />
<text x="305.0" y="200.0" font-family="Arial, sans-serif" font-size="13" fill="#1f2933" text-anchor="middle" dominant-baseline="middle">head 2</text>
<rect x="435" y="175" width="125" height="50" fill="#ffe6c9" stroke="#bf6b21" stroke-width="2" rx="4" />
<text x="497.5" y="200.0" font-family="Arial, sans-serif" font-size="13" fill="#1f2933" text-anchor="middle" dominant-baseline="middle">attention</text>
<line x1="165" y1="210" x2="250" y2="200" stroke="#1f2933" stroke-width="2" marker-end="url(#arrow)" />
<line x1="360" y1="200" x2="435" y2="200" stroke="#1f2933" stroke-width="2" marker-end="url(#arrow)" />
<line x1="560" y1="200" x2="675" y2="210" stroke="#1f2933" stroke-width="2" marker-end="url(#arrow)" />
<rect x="250" y="260" width="110" height="50" fill="#dff3df" stroke="#438a43" stroke-width="2" rx="4" />
<text x="305.0" y="285.0" font-family="Arial, sans-serif" font-size="13" fill="#1f2933" text-anchor="middle" dominant-baseline="middle">head H</text>
<rect x="435" y="260" width="125" height="50" fill="#ffe6c9" stroke="#bf6b21" stroke-width="2" rx="4" />
<text x="497.5" y="285.0" font-family="Arial, sans-serif" font-size="13" fill="#1f2933" text-anchor="middle" dominant-baseline="middle">attention</text>
<line x1="165" y1="210" x2="250" y2="285" stroke="#1f2933" stroke-width="2" marker-end="url(#arrow)" />
<line x1="360" y1="285" x2="435" y2="285" stroke="#1f2933" stroke-width="2" marker-end="url(#arrow)" />
<line x1="560" y1="285" x2="675" y2="210" stroke="#1f2933" stroke-width="2" marker-end="url(#arrow)" />
<rect x="675" y="175" width="120" height="70" fill="#eadfff" stroke="#7453b6" stroke-width="2" rx="4" />
<text x="735.0" y="205.45" font-family="Arial, sans-serif" font-size="13" fill="#1f2933" text-anchor="middle" dominant-baseline="middle">concat</text>
<text x="735.0" y="220.39999999999998" font-family="Arial, sans-serif" font-size="13" fill="#1f2933" text-anchor="middle" dominant-baseline="middle">(B,N,D)</text>
<rect x="855" y="175" width="90" height="70" fill="#d7e8ff" stroke="#2f65b0" stroke-width="2" rx="4" />
<text x="900.0" y="210.0" font-family="Arial, sans-serif" font-size="15" fill="#1f2933" text-anchor="middle" dominant-baseline="middle">W_o</text>
<line x1="795" y1="210" x2="855" y2="210" stroke="#1f2933" stroke-width="2" marker-end="url(#arrow)" />
<text x="245" y="365.0" font-family="Arial, sans-serif" font-size="16" fill="#1f2933" text-anchor="start" dominant-baseline="middle">Each head has dimension D/H, so concatenating H heads returns to D.</text>
</svg>
