<svg xmlns="http://www.w3.org/2000/svg" width="1050" height="420" viewBox="0 0 1050 420">
<defs>
  <marker id="arrow" markerWidth="10" markerHeight="10" refX="9" refY="3" orient="auto" markerUnits="strokeWidth">
    <path d="M0,0 L0,6 L9,3 z" fill="#1f2933" />
  </marker>
</defs>
<rect x="0" y="0" width="1050" height="420" fill="white" />
<text x="40" y="45.0" font-family="Arial, sans-serif" font-size="17" fill="#1f2933" text-anchor="start" dominant-baseline="middle">Pre-norm transformer block: normalize before each sublayer, then add the residual stream.</text>
<rect x="45" y="185" width="80" height="55" fill="#d7e8ff" stroke="#2f65b0" stroke-width="2" rx="4" />
<text x="85.0" y="212.5" font-family="Arial, sans-serif" font-size="15" fill="#1f2933" text-anchor="middle" dominant-baseline="middle">x</text>
<rect x="190" y="105" width="100" height="50" fill="#f1f3f5" stroke="#70757a" stroke-width="2" rx="4" />
<text x="240.0" y="130.0" font-family="Arial, sans-serif" font-size="13" fill="#1f2933" text-anchor="middle" dominant-baseline="middle">norm1</text>
<rect x="340" y="105" width="125" height="50" fill="#ffe6c9" stroke="#bf6b21" stroke-width="2" rx="4" />
<text x="402.5" y="130.0" font-family="Arial, sans-serif" font-size="13" fill="#1f2933" text-anchor="middle" dominant-baseline="middle">attention</text>
<rect x="540" y="105" width="70" height="50" fill="#dff3df" stroke="#438a43" stroke-width="2" rx="4" />
<text x="575.0" y="130.0" font-family="Arial, sans-serif" font-size="15" fill="#1f2933" text-anchor="middle" dominant-baseline="middle">+</text>
<rect x="680" y="185" width="100" height="50" fill="#f1f3f5" stroke="#70757a" stroke-width="2" rx="4" />
<text x="730.0" y="210.0" font-family="Arial, sans-serif" font-size="13" fill="#1f2933" text-anchor="middle" dominant-baseline="middle">norm2</text>
<rect x="825" y="185" width="135" height="50" fill="#eadfff" stroke="#7453b6" stroke-width="2" rx="4" />
<text x="892.5" y="210.0" font-family="Arial, sans-serif" font-size="13" fill="#1f2933" text-anchor="middle" dominant-baseline="middle">FFN or MoE</text>
<rect x="915" y="290" width="70" height="50" fill="#dff3df" stroke="#438a43" stroke-width="2" rx="4" />
<text x="950.0" y="315.0" font-family="Arial, sans-serif" font-size="15" fill="#1f2933" text-anchor="middle" dominant-baseline="middle">+</text>
<line x1="125" y1="212" x2="190" y2="130" stroke="#1f2933" stroke-width="2" marker-end="url(#arrow)" />
<line x1="290" y1="130" x2="340" y2="130" stroke="#1f2933" stroke-width="2" marker-end="url(#arrow)" />
<line x1="465" y1="130" x2="540" y2="130" stroke="#1f2933" stroke-width="2" marker-end="url(#arrow)" />
<path d="M 125 212 C 270 260, 425 260, 540 150" fill="none" stroke="#1f2933" stroke-width="2" marker-end="url(#arrow)" />
<line x1="610" y1="130" x2="680" y2="210" stroke="#1f2933" stroke-width="2" marker-end="url(#arrow)" />
<line x1="780" y1="210" x2="825" y2="210" stroke="#1f2933" stroke-width="2" marker-end="url(#arrow)" />
<line x1="960" y1="210" x2="950" y2="290" stroke="#1f2933" stroke-width="2" marker-end="url(#arrow)" />
<path d="M 610 150 C 720 330, 825 345, 915 315" fill="none" stroke="#1f2933" stroke-width="2" marker-end="url(#arrow)" />
<line x1="985" y1="315" x2="1030" y2="315" stroke="#1f2933" stroke-width="2" marker-end="url(#arrow)" />
<text x="640" y="380.0" font-family="Arial, sans-serif" font-size="16" fill="#1f2933" text-anchor="start" dominant-baseline="middle">MoE swaps only this FFN box; the residual scaffold stays the same.</text>
</svg>
